<?xml version="1.0" encoding="UTF-8"?>
<svg width="24px" height="24px" viewBox="0 0 24 24" version="1.1" xmlns="http://www.w3.org/2000/svg" xmlns:xlink="http://www.w3.org/1999/xlink">
    <title>编组 8</title>
    <g id="直播4.0" stroke="none" stroke-width="1" fill="none" fill-rule="evenodd">
        <g id="视频播放（全屏）加载备份" transform="translate(-324.000000, -341.000000)">
            <g id="编组-8" transform="translate(324.000000, 341.000000)">
                <rect id="矩形" x="0" y="0" width="24" height="24"></rect>
                <line x1="8.5" y1="9.5" x2="8.5" y2="20" id="直线-4" stroke="#FFFFFF" stroke-width="2" stroke-linecap="round"></line>
                <path d="M11.494567,4.18151548 C12.3849287,2.43688203 14.0398971,2.8858613 14.5159331,3.85433684 C14.9324645,4.70175294 14.1295975,7.97522459 13.9223725,8.78035163 L13.8877455,8.91331439 C13.8796832,8.9438526 13.8753213,8.96001354 13.8753213,8.96001354 L19.0584567,8.96001354 C19.6107414,8.96001354 20.0584567,9.40772879 20.0584567,9.96001354 C20.0584567,10.0407051 20.0486901,10.1211 20.02937,10.1994445 L17.8000747,19.239431 C17.6899219,19.6861099 17.2892218,20 16.8291613,20 L5,20 C4.44771525,20 4,19.5522847 4,19 L4,9.96001354 C4,9.40772879 4.44771525,8.96001354 5,8.96001354 L8.37429929,8.96001354 L8.37429929,8.96001354 C9.86090331,6.93743713 10.9009925,5.34460444 11.494567,4.18151548 Z" id="形状结合" stroke="#FFFFFF" stroke-width="2" stroke-linejoin="round"></path>
            </g>
        </g>
    </g>
</svg>