<?xml version="1.0" encoding="UTF-8"?>
<svg width="18px" height="18px" viewBox="0 0 18 18" version="1.1" xmlns="http://www.w3.org/2000/svg" xmlns:xlink="http://www.w3.org/1999/xlink">
    <title>编组 23</title>
    <g id="页面-2" stroke="none" stroke-width="1" fill="none" fill-rule="evenodd">
        <g id="内容列表-未评论备份-9" transform="translate(-307.000000, -618.000000)">
            <g id="编组-23" transform="translate(307.000000, 618.000000)">
                <rect id="矩形" x="0" y="0" width="18" height="18"></rect>
                <path d="M4.25,5.625 L5.625,5.625 L5.625,5.625 C6.3196695,4.93668127 6.8071695,4.26168127 7.0875,3.6 C7.22195631,3.28263453 7.35231071,2.92769764 7.47856322,2.53518933 C7.70890109,1.81897665 8.47624984,1.42513221 9.19245203,1.65550267 C9.22241209,1.66513949 9.25202918,1.67581167 9.28125,1.6875 C10.1022899,2.01591597 10.5838809,2.87171476 10.438505,3.74397014 L10.125,5.625 L10.125,5.625 L14.6650249,5.625 C15.7695944,5.625 16.6650249,6.5204305 16.6650249,7.625 C16.6650249,7.69145952 16.6617122,7.75787774 16.6550993,7.82400744 L16.0201489,14.1735112 C15.8667883,15.7071165 14.5762917,16.875 13.0350373,16.875 L4.25,16.875 C3.1454305,16.875 2.25,15.9795695 2.25,14.875 L2.25,7.625 C2.25,6.5204305 3.1454305,5.625 4.25,5.625 Z" id="矩形" stroke="#646472" stroke-width="1.8" stroke-linejoin="round"></path>
            </g>
        </g>
    </g>
</svg>