<?xml version="1.0" encoding="UTF-8"?>
<svg width="18px" height="18px" viewBox="0 0 18 18" version="1.1" xmlns="http://www.w3.org/2000/svg" xmlns:xlink="http://www.w3.org/1999/xlink">
    <title>编组 21</title>
    <g id="页面-2" stroke="none" stroke-width="1" fill="none" fill-rule="evenodd">
        <g id="内容列表-未评论备份-9" transform="translate(-175.000000, -618.000000)">
            <g id="编组-21" transform="translate(175.000000, 618.000000)">
                <rect id="矩形" x="0" y="0" width="18" height="18"></rect>
                <path d="M6.125,1.125 L11.875,1.125 C14.6364237,1.125 16.875,3.36357625 16.875,6.125 L16.875,9.625 C16.875,12.3864237 14.6364237,14.625 11.875,14.625 L11.25,14.625 L11.25,14.625 L9.35324132,16.5214732 C9.15796449,16.7167207 8.841382,16.7166968 8.64613455,16.52142 C8.64613454,16.52142 8.64613454,16.52142 8.64613455,16.52142 L6.75,14.625 L6.75,14.625 L6.125,14.625 C3.36357625,14.625 1.125,12.3864237 1.125,9.625 L1.125,6.125 C1.125,3.36357625 3.36357625,1.125 6.125,1.125 Z" id="矩形" stroke="#646472" stroke-width="1.8"></path>
                <path d="M6.1875,7.31952465 C6.94131084,8.01131333 7.92798811,8.43047535 9.00793217,8.43047535 C10.0803166,8.43047535 11.0607353,8.01716111 11.8125,7.33401221" id="路径" stroke="#646472" stroke-width="1.8" stroke-linecap="round"></path>
            </g>
        </g>
    </g>
</svg>